<svg viewBox="0 0 800 800" xmlns="http://www.w3.org/2000/svg">
  <rect width="800" height="800" fill="#161618"/>
  <path d="M300 300 h200 a60 60 0 0 1 60 60 v40 a60 60 0 0 1 -60 60 h-40 l-30 40 h-60 l-30 -40 h-40 a60 60 0 0 1 -60 -60 v-40 a60 60 0 0 1 60 -60 z" fill="none" stroke="#C9A24B" stroke-width="6" stroke-linejoin="round"/>
  <line x1="345" y1="360" x2="345" y2="400" stroke="#C9A24B" stroke-width="6" stroke-linecap="round"/>
  <line x1="325" y1="380" x2="365" y2="380" stroke="#C9A24B" stroke-width="6" stroke-linecap="round"/>
  <circle cx="460" cy="365" r="8" fill="#C9A24B"/>
  <circle cx="485" cy="390" r="8" fill="#C9A24B"/>
  <text x="400" y="580" text-anchor="middle" font-family="Arial, sans-serif" font-size="28" letter-spacing="6" fill="#C9A24B">ZYLIX</text>
  <text x="400" y="620" text-anchor="middle" font-family="Arial, sans-serif" font-size="18" letter-spacing="3" fill="#8C6929">GAMING</text>
</svg>
